<svg width="200" height="200" viewBox="0 0 200 200" xmlns="http://www.w3.org/2000/svg">
  <!-- Shield background -->
  <path d="M 100,20 L 160,50 L 150,120 L 50,120 L 40,50 Z" fill="#2d3e50" stroke="#1a2332" stroke-width="2"/>
  
  <!-- Left wing (dark blue) -->
  <g fill="#1a4d7a" stroke="#0d2438" stroke-width="1">
    <path d="M 65,60 L 30,45 L 32,50 L 63,65 Z"/>
    <path d="M 64,67 L 25,55 L 27,60 L 62,72 Z"/>
    <path d="M 63,74 L 20,65 L 22,70 L 61,79 Z"/>
    <path d="M 62,81 L 15,75 L 17,80 L 60,86 Z"/>
    <path d="M 61,88 L 10,85 L 12,90 L 59,93 Z"/>
  </g>
  
  <!-- Right wing (white/light) -->
  <g fill="#e8e8e8" stroke="#0d2438" stroke-width="1">
    <path d="M 135,60 L 170,45 L 168,50 L 137,65 Z"/>
    <path d="M 136,67 L 175,55 L 173,60 L 138,72 Z"/>
    <path d="M 137,74 L 180,65 L 178,70 L 139,79 Z"/>
    <path d="M 138,81 L 185,75 L 183,80 L 140,86 Z"/>
    <path d="M 139,88 L 190,85 L 188,90 L 141,93 Z"/>
  </g>
  
  <!-- T letter -->
  <g fill="#1a4d7a">
    <rect x="85" y="55" width="30" height="50" rx="2"/>
    <rect x="75" y="55" width="50" height="15" rx="2"/>
    <!-- Inner glow -->
    <rect x="88" y="60" width="24" height="40" rx="2" fill="#4a8fd8" opacity="0.5"/>
    <rect x="80" y="60" width="40" height="10" rx="2" fill="#4a8fd8" opacity="0.5"/>
  </g>
  
  <!-- Brand text -->
  <text x="100" y="145" font-family="system-ui, sans-serif" font-size="16" font-weight="700" fill="#1a4d7a" text-anchor="middle">TerrasyncAutomation</text>
</svg>